<?xml version="1.0" encoding="UTF-8"?>
<svg width="173px" height="34px" viewBox="0 0 205 40" version="1.1" xmlns="http://www.w3.org/2000/svg" xmlns:xlink="http://www.w3.org/1999/xlink">
    <!-- Generator: Sketch 54.1 (76490) - https://sketchapp.com -->
    <title>Logo</title>
    <desc>Created with Sketch.</desc>
    
    <g id="Page-1" stroke="none" stroke-width="1" fill="none" fill-rule="evenodd">
        <g id="Homepage" transform="translate(-33.000000, -34.000000)">
            <g id="HEADER" transform="translate(33.000000, 20.000000)">
                <g id="Logo" transform="translate(0.000000, 14.000000)">
                <path id="KENZAP" fill="#191718" fill-rule="nonzero" 

          d="M 55.013 21.21 L 55.013 1.26 A 0.716 0.716 0 0 1 55.223 0.75 A 0.939 0.939 0 0 1 55.238 0.735 Q 55.463 0.51 55.763 0.51 L 63.143 0.51 A 5.874 5.874 0 0 1 65.531 0.994 A 5.696 5.696 0 0 1 66.188 1.335 Q 67.553 2.16 68.378 3.525 Q 69.203 4.89 69.203 6.54 Q 69.203 7.95 68.588 9.18 Q 67.973 10.41 66.923 11.265 Q 65.873 12.12 64.523 12.42 L 69.173 20.85 A 0.926 0.926 0 0 1 69.243 21.036 Q 69.266 21.128 69.266 21.219 A 0.713 0.713 0 0 1 69.233 21.435 A 0.811 0.811 0 0 1 69.089 21.706 A 0.754 0.754 0 0 1 68.903 21.87 A 0.926 0.926 0 0 1 68.717 21.94 Q 68.624 21.964 68.534 21.964 A 0.713 0.713 0 0 1 68.318 21.93 Q 68.033 21.84 67.883 21.57 L 62.933 12.6 L 58.553 12.6 A 0.806 0.806 0 0 1 58.548 12.6 Q 58.263 12.598 58.045 12.392 A 0.937 0.937 0 0 1 58.028 12.375 Q 57.803 12.15 57.803 11.85 A 0.79 0.79 0 0 1 57.846 11.584 A 0.684 0.684 0 0 1 58.028 11.31 Q 58.253 11.1 58.553 11.1 L 63.143 11.1 Q 64.403 11.1 65.438 10.485 Q 66.473 9.87 67.088 8.835 Q 67.703 7.8 67.703 6.54 A 4.434 4.434 0 0 0 67.378 4.836 A 4.237 4.237 0 0 0 67.088 4.26 Q 66.473 3.24 65.438 2.625 Q 64.403 2.01 63.143 2.01 L 56.513 2.01 L 56.513 21.21 A 0.694 0.694 0 0 1 56.309 21.714 A 0.827 0.827 0 0 1 56.303 21.72 Q 56.093 21.93 55.763 21.93 Q 55.463 21.93 55.238 21.72 A 0.707 0.707 0 0 1 55.066 21.481 A 0.682 0.682 0 0 1 55.013 21.21 Z M 18.443 21.18 L 18.443 0.84 A 0.798 0.798 0 0 1 18.503 0.528 A 0.756 0.756 0 0 1 18.668 0.285 Q 18.778 0.175 18.905 0.119 A 0.705 0.705 0 0 1 19.193 0.06 A 0.79 0.79 0 0 1 19.458 0.103 A 0.684 0.684 0 0 1 19.733 0.285 A 0.774 0.774 0 0 1 19.942 0.799 A 1.007 1.007 0 0 1 19.943 0.84 L 19.943 11.97 L 30.803 0.36 A 0.771 0.771 0 0 1 31.017 0.186 A 0.688 0.688 0 0 1 31.313 0.105 A 0.7 0.7 0 0 1 31.348 0.104 Q 31.625 0.104 31.823 0.33 A 0.771 0.771 0 0 1 31.997 0.545 A 0.688 0.688 0 0 1 32.078 0.84 A 0.702 0.702 0 0 1 32.079 0.875 Q 32.079 1.154 31.853 1.38 L 24.833 8.94 L 32.453 20.76 A 0.612 0.612 0 0 1 32.58 21.136 Q 32.58 21.2 32.568 21.266 A 0.867 0.867 0 0 1 32.558 21.315 Q 32.483 21.63 32.243 21.78 A 0.754 0.754 0 0 1 32.005 21.887 Q 31.839 21.928 31.658 21.885 Q 31.343 21.81 31.193 21.57 L 23.783 10.08 L 19.943 14.19 L 19.943 21.18 A 0.694 0.694 0 0 1 19.739 21.684 A 0.827 0.827 0 0 1 19.733 21.69 Q 19.523 21.9 19.193 21.9 Q 18.893 21.9 18.668 21.69 A 0.707 0.707 0 0 1 18.496 21.451 A 0.682 0.682 0 0 1 18.443 21.18 Z M 7.553 21.9 Q 5.393 21.9 3.473 21.15 A 9.163 9.163 0 0 1 1.449 20.065 A 7.811 7.811 0 0 1 0.293 19.05 A 1.19 1.19 0 0 1 0.151 18.91 Q -0.221 18.466 0.323 18 A 1.197 1.197 0 0 1 0.485 17.877 Q 0.9 17.619 1.278 17.966 A 1.233 1.233 0 0 1 1.343 18.03 A 6.661 6.661 0 0 0 3.024 19.305 A 8.491 8.491 0 0 0 4.043 19.77 Q 5.693 20.4 7.553 20.4 A 10.303 10.303 0 0 0 9.054 20.298 Q 9.866 20.178 10.526 19.918 A 4.67 4.67 0 0 0 11.573 19.35 A 3.335 3.335 0 0 0 12.984 16.947 A 4.401 4.401 0 0 0 13.013 16.44 Q 13.013 14.49 11.513 13.32 A 5.963 5.963 0 0 0 10.283 12.597 Q 8.92 11.985 6.833 11.67 Q 4.806 11.336 3.476 10.601 A 5.522 5.522 0 0 1 2.273 9.72 Q 0.803 8.28 0.803 5.7 A 6.68 6.68 0 0 1 1.021 3.943 A 4.754 4.754 0 0 1 2.513 1.545 Q 4.223 0.06 7.253 0.06 A 8.996 8.996 0 0 1 9.403 0.331 A 11.154 11.154 0 0 1 10.493 0.66 Q 12.173 1.26 13.613 2.31 Q 14.143 2.757 13.79 3.281 A 1.281 1.281 0 0 1 13.733 3.36 A 1.212 1.212 0 0 1 13.585 3.526 Q 13.191 3.888 12.713 3.51 Q 11.483 2.58 10.028 2.07 A 9.404 9.404 0 0 0 8.52 1.672 A 7.434 7.434 0 0 0 7.253 1.56 A 8.066 8.066 0 0 0 5.828 1.678 Q 5.03 1.821 4.397 2.139 A 4.04 4.04 0 0 0 3.608 2.655 A 3.577 3.577 0 0 0 2.349 4.999 A 5.175 5.175 0 0 0 2.303 5.7 A 5.134 5.134 0 0 0 2.452 6.974 A 3.56 3.56 0 0 0 3.458 8.715 A 4.431 4.431 0 0 0 4.559 9.463 Q 5.574 9.962 7.073 10.2 Q 10.747 10.745 12.553 12.156 A 5.583 5.583 0 0 1 12.713 12.285 A 4.959 4.959 0 0 1 14.473 15.681 A 7.065 7.065 0 0 1 14.513 16.44 A 5.699 5.699 0 0 1 14.239 18.249 A 4.63 4.63 0 0 1 12.683 20.445 A 6.124 6.124 0 0 1 10.644 21.489 Q 9.766 21.759 8.709 21.852 A 13.252 13.252 0 0 1 7.553 21.9 Z M 35.063 20.79 L 42.593 0.48 Q 42.785 0.041 43.228 0.004 A 1.007 1.007 0 0 1 43.313 0 Q 43.823 0 44.033 0.48 L 51.593 20.79 Q 51.713 21.09 51.578 21.375 A 0.698 0.698 0 0 1 51.381 21.628 A 0.705 0.705 0 0 1 51.143 21.75 A 0.64 0.64 0 0 1 50.938 21.804 Q 50.766 21.819 50.588 21.735 Q 50.303 21.6 50.183 21.3 L 43.313 2.91 L 39.143 14.04 L 44.813 14.04 A 0.668 0.668 0 0 1 45.303 14.244 A 0.844 0.844 0 0 1 45.323 14.265 A 0.774 0.774 0 0 1 45.532 14.779 A 1.007 1.007 0 0 1 45.533 14.82 A 0.694 0.694 0 0 1 45.329 15.324 A 0.827 0.827 0 0 1 45.323 15.33 A 0.693 0.693 0 0 1 44.822 15.54 A 0.852 0.852 0 0 1 44.813 15.54 L 38.573 15.54 L 36.443 21.3 A 0.864 0.864 0 0 1 36.285 21.559 A 0.773 0.773 0 0 1 36.053 21.735 A 0.656 0.656 0 0 1 35.796 21.805 Q 35.644 21.815 35.483 21.75 Q 35.183 21.66 35.063 21.375 Q 34.956 21.121 35.039 20.856 A 0.914 0.914 0 0 1 35.063 20.79 Z M 88.913 20.79 L 96.443 0.48 Q 96.635 0.041 97.078 0.004 A 1.007 1.007 0 0 1 97.163 0 Q 97.673 0 97.883 0.48 L 105.443 20.79 Q 105.563 21.09 105.428 21.375 A 0.698 0.698 0 0 1 105.231 21.628 A 0.705 0.705 0 0 1 104.993 21.75 A 0.64 0.64 0 0 1 104.788 21.804 Q 104.616 21.819 104.438 21.735 Q 104.153 21.6 104.033 21.3 L 97.163 2.91 L 92.993 14.04 L 98.663 14.04 A 0.668 0.668 0 0 1 99.153 14.244 A 0.844 0.844 0 0 1 99.173 14.265 A 0.774 0.774 0 0 1 99.382 14.779 A 1.007 1.007 0 0 1 99.383 14.82 A 0.694 0.694 0 0 1 99.179 15.324 A 0.827 0.827 0 0 1 99.173 15.33 A 0.693 0.693 0 0 1 98.672 15.54 A 0.852 0.852 0 0 1 98.663 15.54 L 92.423 15.54 L 90.293 21.3 A 0.864 0.864 0 0 1 90.135 21.559 A 0.773 0.773 0 0 1 89.903 21.735 A 0.656 0.656 0 0 1 89.646 21.805 Q 89.494 21.815 89.333 21.75 Q 89.033 21.66 88.913 21.375 Q 88.806 21.121 88.889 20.856 A 0.914 0.914 0 0 1 88.913 20.79 Z M 80.003 21.51 L 73.883 21.51 A 0.716 0.716 0 0 1 73.372 21.299 A 0.939 0.939 0 0 1 73.358 21.285 Q 73.133 21.06 73.133 20.76 L 73.133 1.26 A 0.716 0.716 0 0 1 73.343 0.75 A 0.939 0.939 0 0 1 73.358 0.735 Q 73.583 0.51 73.883 0.51 L 80.003 0.51 A 6.695 6.695 0 0 1 82.757 1.075 A 6.508 6.508 0 0 1 83.483 1.455 Q 85.043 2.4 85.988 3.96 A 6.58 6.58 0 0 1 86.933 7.41 A 7.795 7.795 0 0 1 86.933 7.44 L 86.933 14.55 Q 86.933 16.47 85.988 18.045 Q 85.043 19.62 83.483 20.565 A 6.58 6.58 0 0 1 80.033 21.51 A 7.795 7.795 0 0 1 80.003 21.51 Z M 74.633 2.01 L 74.633 20.01 L 80.003 20.01 Q 81.503 20.01 82.733 19.275 Q 83.963 18.54 84.698 17.295 Q 85.433 16.05 85.433 14.55 L 85.433 7.44 Q 85.433 5.94 84.698 4.71 Q 83.963 3.48 82.733 2.745 Q 81.503 2.01 80.003 2.01 L 74.633 2.01 Z"
                
                vector-effect="non-scaling-stroke"/>
                  
                    <text id=".cloud" font-family="Poppins-SemiBold, Poppins" font-size="18" font-weight="500" letter-spacing="-0.9333335" fill="#bc463e">
                        <tspan x="112" y="33">design</tspan>
                    </text>
                </g>
            </g>
        </g>
    </g>
</svg>